# xmcd
#
# Track frame offsets: 
#        150
#        13905
#        31914
#        44633
#        60015
#        78589
#        92019
#        107771
#
# Disc length: 1635 seconds
#
# Revision: 0
# Processed by: cddbd v1.5.2PL0 Copyright (c) Steve Scherf et al.
# Submitted via: ExactAudioCopy v1.0b1
#
DISCID=5b066108
DTITLE=Lucy Angel - A Girls Gotta Do What A Girls Gotta Do
DYEAR=2005
DGENRE=Country
TTITLE0=Come On Down
TTITLE1=Wantin' Not The Gettin'
TTITLE2=You Ain't Woman Enough (To Take My Man)
TTITLE3=Baby It's Only Love
TTITLE4=Why'd I Ever
TTITLE5=Sweet
TTITLE6=Let's Talk About You
TTITLE7=Just About Every Night
EXTD=
EXTT0=
EXTT1=
EXTT2=
EXTT3=
EXTT4=
EXTT5=
EXTT6=
EXTT7=
PLAYORDER=
